# xmcd
#
# Track frame offsets: 
#        150
#        10567
#        34418
#        53542
#        83704
#        102139
#        116732
#        136776
#        165106
#        191322
#        210457
#        230759
#        254032
#        272404
#        296819
#
# Disc length: 4197 seconds
#
# Revision: 0
# Processed by: cddbd v1.5.2PL0 Copyright (c) Steve Scherf et al.
# Submitted via: ExactAudioCopy v0.95b3
#
DISCID=c210630f
DTITLE=Jorma Kaukonen - Relix Collection [CD1]
DYEAR=2009
DGENRE=Blues
TTITLE0=Embryonic journey
TTITLE1=Broken highway
TTITLE2=Radical sleep
TTITLE3=Killing time in the crystal city
TTITLE4=Walkin blues
TTITLE5=Candyman
TTITLE6=Good shepered
TTITLE7=Mann's fate
TTITLE8=Whining boy blues
TTITLE9=Broken highway
TTITLE10=Rock me baby
TTITLE11=Roads and roads
TTITLE12=Police dog blues
TTITLE13=Christmas rule
TTITLE14=What child is this?
EXTD=
EXTT0=
EXTT1=
EXTT2=
EXTT3=
EXTT4=
EXTT5=
EXTT6=
EXTT7=
EXTT8=
EXTT9=
EXTT10=
EXTT11=
EXTT12=
EXTT13=
EXTT14=
PLAYORDER=
